<svg width="18" height="17" viewBox="0 0 18 17" fill="none" xmlns="http://www.w3.org/2000/svg">
<g id="phone-call 1" clip-path="url(#clip0_1_760)">
<g id="Group">
<g id="Group_2">
<path id="Vector" d="M17.2093 12.4484L14.866 10.1051C14.0291 9.26816 12.6064 9.60295 12.2716 10.6909C12.0206 11.4441 11.1836 11.8626 10.4304 11.6952C8.75663 11.2767 6.49699 9.10078 6.07854 7.34329C5.82747 6.59004 6.32961 5.75314 7.08283 5.5021C8.1708 5.16734 8.50556 3.7446 7.66866 2.9077L5.32533 0.564374C4.65581 -0.0214579 3.65152 -0.0214579 3.06569 0.564374L1.47558 2.15449C-0.114538 3.82829 1.64296 8.26388 5.5764 12.1973C9.50984 16.1308 13.9454 17.972 15.6192 16.2981L17.2093 14.708C17.7952 14.0385 17.7952 13.0342 17.2093 12.4484Z" fill="white"/>
</g>
</g>
</g>
<defs>
<clipPath id="clip0_1_760">
<rect width="16.7917" height="16.7917" fill="white" transform="translate(0.875 0.125)"/>
</clipPath>
</defs>
</svg>
